<svg xmlns="http://www.w3.org/2000/svg" viewBox="116 1510 1430 170" width="1430" height="170">
  <path transform="translate(0,0)" fill="rgb(0,0,0)" d="M 1298.55 1517.39 C 1341.99 1512.65 1374.11 1538.53 1377.85 1582.17 C 1382.01 1630.64 1366.67 1670.9 1313.17 1675.43 C 1269.02 1679.33 1238.19 1653.94 1234.56 1609.66 C 1230.61 1561.39 1245.92 1522.35 1298.55 1517.39 z"/>
  <path transform="translate(0,0)" fill="rgb(253,253,253)" d="M 1300.54 1547.34 C 1323.49 1545.54 1338.04 1555.92 1341.71 1578.8 C 1345.78 1604.18 1343.89 1639.53 1313.1 1645.46 C 1304.25 1646.16 1295.42 1645.88 1287.56 1640.85 C 1265.05 1626.45 1265.27 1582.29 1277.65 1561.63 C 1282.82 1552.99 1291.19 1549.37 1300.54 1547.34 z"/>
  <path transform="translate(0,0)" fill="rgb(0,0,0)" d="M 116.411 1519.85 C 149.122 1519.65 196.692 1514.08 222.062 1537.98 C 252.282 1566.45 251.562 1623.69 224.055 1654.04 C 197.187 1679.13 152.277 1674.07 116.342 1673.43 C 117.072 1622.78 116.234 1570.68 116.411 1519.85 z"/>
  <path transform="translate(0,0)" fill="rgb(253,253,253)" d="M 151.212 1549.42 C 164.261 1549.17 184.082 1548.25 194.46 1557.09 C 215.288 1574.83 213.412 1613.85 197.483 1633.81 C 182.17 1646.16 170.377 1644.18 151.018 1644.06 C 150.857 1612.51 150.921 1580.97 151.212 1549.42 z"/>
  <path transform="translate(0,0)" fill="rgb(0,0,0)" d="M 1506.16 1519.84 C 1516.85 1519.72 1527.54 1519.71 1538.22 1519.81 C 1538.32 1535.87 1539.38 1669.71 1536.98 1673.42 L 1495.85 1673.5 C 1488.58 1662 1479.91 1645.5 1473.21 1633.41 L 1434.3 1562.96 C 1435.55 1574.11 1435.13 1592.62 1435.15 1604.13 L 1435.16 1673.49 L 1403.84 1673.32 L 1403.85 1519.84 L 1447.94 1519.76 C 1467.98 1555.51 1487.74 1591.43 1507.21 1627.5 C 1506.32 1591.62 1505.98 1555.73 1506.16 1519.84 z"/>
  <path transform="translate(0,0)" fill="rgb(0,0,0)" d="M 933.394 1519.8 C 946.827 1519.64 960.466 1519.75 973.919 1519.73 C 978.03 1534.19 986.646 1556.37 991.919 1571.32 L 1027.64 1673.47 C 1016.08 1673.9 1002.7 1673.58 991 1673.58 C 988.345 1664.34 984.144 1647.6 979.611 1639.06 C 978.953 1637.83 977.112 1638.08 975.25 1637.9 L 926.581 1637.9 C 922.924 1649.76 919.196 1661.59 915.398 1673.41 C 903.323 1673.65 890.673 1673.45 878.55 1673.44 C 884.983 1657.44 891.357 1637.35 897.219 1620.83 L 933.394 1519.8 z"/>
  <path transform="translate(0,0)" fill="rgb(253,253,253)" d="M 953.348 1550.72 C 956.032 1555.21 969.015 1599.81 971.481 1607.98 L 956.25 1608.01 L 936.049 1608.03 C 940.501 1590.73 947.792 1567.91 953.348 1550.72 z"/>
  <path transform="translate(0,0)" fill="rgb(0,0,0)" d="M 812.242 1517.41 C 830.1 1515.69 850.496 1520.45 866.764 1527.81 C 864.449 1535.87 859.47 1548.07 856.384 1556.2 C 842.183 1550.75 830.77 1546.4 815.347 1547.78 C 784.036 1550.5 773.301 1580.6 777.439 1608.26 C 782.737 1643.67 801.648 1648.9 833.192 1644.1 L 833.129 1614.65 C 823.843 1614.54 814.556 1614.54 805.27 1614.63 L 805.338 1585.91 L 837.585 1585.89 L 866.733 1585.98 L 866.92 1666.17 C 811.783 1684.11 749.516 1682.11 742.226 1611.1 C 736.997 1560.16 758.379 1522.11 812.242 1517.41 z"/>
  <path transform="translate(0,0)" fill="rgb(0,0,0)" d="M 566.936 1519.79 C 578.198 1519.67 589.595 1519.79 600.869 1519.81 L 600.87 1552.25 L 600.956 1592.48 C 600.984 1614.98 603.276 1641.3 586.084 1658.41 C 557.07 1687.28 488.436 1680.92 478.743 1635.67 C 475.125 1618.78 476.112 1600.16 476.164 1582.96 L 476.407 1519.84 L 510.941 1519.7 L 510.899 1585.44 C 510.892 1597.77 508.725 1629.75 518.344 1638.57 C 532.391 1651.44 562.81 1647.82 565.641 1624.74 C 567.401 1610.39 566.888 1597.55 566.861 1582.86 L 566.936 1519.79 z"/>
  <path transform="translate(0,0)" fill="rgb(0,0,0)" d="M 424.191 1519.74 L 459.815 1519.78 C 456.652 1529.64 453.368 1539.47 449.965 1549.25 L 407.761 1673.58 C 395.513 1673.47 383.095 1673.61 370.831 1673.63 C 354.18 1622.34 335.865 1571.23 318.971 1519.94 C 330.339 1519.45 343.753 1519.73 355.276 1519.69 C 365.765 1558 380.405 1597.12 389.133 1636.03 C 397.444 1600.71 413.129 1555.28 424.191 1519.74 z"/>
  <path transform="translate(0,0)" fill="rgb(0,0,0)" d="M 1098.7 1517.36 C 1118.07 1515.55 1134.91 1520.51 1152.06 1528.89 C 1148.54 1538.63 1144.9 1548.34 1141.15 1558 C 1118.7 1547.54 1090.78 1536.94 1076.46 1566.35 C 1069.38 1582.3 1068.45 1607.12 1074.27 1623.47 C 1086.22 1657.06 1123 1645.31 1146.18 1636.44 C 1146.44 1646.72 1146.52 1657.01 1146.43 1667.29 C 1094.62 1687.67 1041.97 1673.52 1035.73 1612.1 C 1030.97 1565.2 1047.51 1523.5 1098.7 1517.36 z"/>
  <path transform="translate(0,0)" fill="rgb(0,0,0)" d="M 633.095 1519.82 C 644.325 1519.56 656.395 1519.76 667.695 1519.74 C 666.828 1560.35 667.422 1603.26 667.386 1644.03 L 727.961 1644.08 L 727.975 1673.29 C 696.907 1674.16 664.282 1673.34 632.979 1673.64 L 633.095 1519.82 z"/>
  <path transform="translate(0,0)" fill="rgb(0,0,0)" d="M 266.085 1519.84 L 300.947 1519.76 L 300.945 1673.61 C 289.298 1673.58 277.651 1673.62 266.005 1673.74 L 266.085 1519.84 z"/>
  <path transform="translate(0,0)" fill="rgb(0,0,0)" d="M 1173.79 1519.78 C 1185.13 1519.65 1196.69 1519.78 1208.06 1519.79 C 1207.81 1570.82 1208.7 1622.5 1207.81 1673.45 L 1173.5 1673.63 L 1173.79 1519.78 z"/>
</svg>
