<svg version="1.1" xmlns="http://www.w3.org/2000/svg" style="display: block;" viewBox="0 0 1639 2048" width="1122" height="1402" preserveAspectRatio="none">
<path transform="translate(0,0)" fill="rgb(255,255,255)" d="M 0 0 L 1639 0 L 1639 2048 L 0 2048 L 0 0 z"/>
<path transform="translate(0,0)" fill="rgb(0,0,0)" d="M 802.812 135.568 C 1150.44 118.782 1445.71 387.303 1461.91 734.96 C 1478.11 1082.62 1209.09 1377.43 861.41 1393.05 C 514.552 1408.63 220.59 1140.39 204.428 793.559 C 188.266 446.728 456.009 152.315 802.812 135.568 z"/>
<path transform="translate(0,0)" fill="rgb(255,255,255)" d="M 844.324 223.474 C 978.376 222.727 1107.6 273.473 1205.32 365.237 C 1308.53 460.879 1369.29 593.768 1374.09 734.397 C 1377.41 877.569 1324.06 1016.26 1225.65 1120.3 C 1134.52 1217.15 1018.36 1273.97 885.026 1278.06 C 950.285 1245.35 982.132 1225.1 1034.48 1174.89 C 1093.21 1114.26 1133.04 1052.42 1158.63 971.296 C 1198.78 847.58 1187.55 712.927 1127.48 597.566 C 1066.63 482.64 962.522 396.674 838.16 358.666 C 751.413 331.691 652.014 332.429 565.168 359.504 C 527.438 371.266 497.92 386.218 463.365 404.331 C 550.715 293.352 704.79 226.802 844.324 223.474 z"/>
<path transform="translate(0,0)" fill="rgb(255,255,255)" d="M 631.863 495.031 C 652.016 427.834 698.756 349.976 750.985 449.995 C 758.91 465.171 763.917 479.332 769.37 495.532 C 776.494 522.533 783.243 546.92 788.068 574.717 C 803.022 660.862 805.415 751.424 799.911 838.548 C 798.204 865.571 796.361 896.103 791.889 922.446 C 793.851 927.399 796.213 931.054 798.886 935.596 C 818.467 968.866 842.18 999.115 864.992 1030.16 C 851.621 1058.69 835.683 1093.14 821.439 1120.76 C 814.513 1109.16 791.376 1068.31 784.685 1059.83 C 781.592 1069.34 779 1075.68 773.574 1084.22 C 761.877 1103.01 743.13 1116.33 721.534 1121.17 C 700.309 1126.01 678.033 1122.16 659.66 1110.48 C 635.036 1094.6 625.88 1070.66 619.878 1043.49 C 615.79 1049.92 609.726 1062.17 605.976 1069.18 L 578.705 1120.21 C 564.571 1092.92 546.646 1058.41 534.48 1030.33 C 545.499 1011.02 607.449 932.527 608.357 915.64 C 590.561 775.087 593.348 631.985 631.863 495.031 z"/>
<path transform="translate(0,0)" fill="rgb(49,107,215)" d="M 784.685 1059.83 C 781.749 1052.68 775.057 1040.78 771.391 1033.19 C 764.166 1018.04 757.573 1002.61 751.63 986.917 C 713.922 887.243 701.017 779.894 714.027 674.123 C 719.663 742.614 737.144 804.502 764.4 867.25 C 772.434 885.745 781.278 905.29 791.889 922.446 C 793.851 927.399 796.213 931.054 798.886 935.596 C 818.467 968.866 842.18 999.115 864.992 1030.16 C 851.621 1058.69 835.683 1093.14 821.439 1120.76 C 814.513 1109.16 791.376 1068.31 784.685 1059.83 z"/>
<path transform="translate(0,0)" fill="rgb(49,107,215)" d="M 682.174 674.137 C 692.506 736.945 685.99 833.71 672.329 896.369 C 666.404 922.604 658.819 948.436 649.62 973.71 C 640.463 999.426 629.486 1019.69 619.878 1043.49 C 615.79 1049.92 609.726 1062.17 605.976 1069.18 L 578.705 1120.21 C 564.571 1092.92 546.646 1058.41 534.48 1030.33 C 545.499 1011.02 607.449 932.527 608.357 915.64 C 613.582 913.451 632.734 867.815 636.207 859.43 C 662.36 796.282 675.342 741.649 682.174 674.137 z"/>
<path transform="translate(0,0)" fill="rgb(175,206,249)" d="M 631.863 495.031 C 652.016 427.834 698.756 349.976 750.985 449.995 C 758.91 465.171 763.917 479.332 769.37 495.532 C 727.708 496.316 673.291 497.083 631.863 495.031 z"/>
<path transform="translate(0,0)" fill="rgb(249,27,51)" d="M 696.401 1161.33 C 754.923 1159.67 789.614 1209.27 781.058 1264.78 C 759.512 1238.83 744.44 1222.35 709.65 1217.1 C 668.921 1215.03 648.787 1235.72 624.459 1264.72 C 612.521 1214.37 645.201 1168.09 696.401 1161.33 z"/>
<path transform="translate(0,0)" fill="rgb(0,0,0)" d="M 1298.55 1517.39 C 1341.99 1512.65 1374.11 1538.53 1377.85 1582.17 C 1382.01 1630.64 1366.67 1670.9 1313.17 1675.43 C 1269.02 1679.33 1238.19 1653.94 1234.56 1609.66 C 1230.61 1561.39 1245.92 1522.35 1298.55 1517.39 z"/>
<path transform="translate(0,0)" fill="rgb(255,255,255)" d="M 1300.54 1547.34 C 1323.49 1545.54 1338.04 1555.92 1341.71 1578.8 C 1345.78 1604.18 1343.89 1639.53 1313.1 1645.46 C 1304.25 1646.16 1295.42 1645.88 1287.56 1640.85 C 1265.05 1626.45 1265.27 1582.29 1277.65 1561.63 C 1282.82 1552.99 1291.19 1549.37 1300.54 1547.34 z"/>
<path transform="translate(0,0)" fill="rgb(0,0,0)" d="M 116.411 1519.85 C 149.122 1519.65 196.692 1514.08 222.062 1537.98 C 252.282 1566.45 251.562 1623.69 224.055 1654.04 C 197.187 1679.13 152.277 1674.07 116.342 1673.43 C 117.072 1622.78 116.234 1570.68 116.411 1519.85 z"/>
<path transform="translate(0,0)" fill="rgb(255,255,255)" d="M 151.212 1549.42 C 164.261 1549.17 184.082 1548.25 194.46 1557.09 C 215.288 1574.83 213.412 1613.85 197.483 1633.81 C 182.17 1646.16 170.377 1644.18 151.018 1644.06 C 150.857 1612.51 150.921 1580.97 151.212 1549.42 z"/>
<path transform="translate(0,0)" fill="rgb(0,0,0)" d="M 1506.16 1519.84 C 1516.85 1519.72 1527.54 1519.71 1538.22 1519.81 C 1538.32 1535.87 1539.38 1669.71 1536.98 1673.42 L 1495.85 1673.5 C 1488.58 1662 1479.91 1645.5 1473.21 1633.41 L 1434.3 1562.96 C 1435.55 1574.11 1435.13 1592.62 1435.15 1604.13 L 1435.16 1673.49 L 1403.84 1673.32 L 1403.85 1519.84 L 1447.94 1519.76 C 1467.98 1555.51 1487.74 1591.43 1507.21 1627.5 C 1506.32 1591.62 1505.98 1555.73 1506.16 1519.84 z"/>
<path transform="translate(0,0)" fill="rgb(0,0,0)" d="M 933.394 1519.8 C 946.827 1519.64 960.466 1519.75 973.919 1519.73 C 978.03 1534.19 986.646 1556.37 991.919 1571.32 L 1027.64 1673.47 C 1016.08 1673.9 1002.7 1673.58 991 1673.58 C 988.345 1664.34 984.144 1647.6 979.611 1639.06 C 978.953 1637.83 977.112 1638.08 975.25 1637.9 L 926.581 1637.9 C 922.924 1649.76 919.196 1661.59 915.398 1673.41 C 903.323 1673.65 890.673 1673.45 878.55 1673.44 C 884.983 1657.44 891.357 1637.35 897.219 1620.83 L 933.394 1519.8 z"/>
<path transform="translate(0,0)" fill="rgb(255,255,255)" d="M 953.348 1550.72 C 956.032 1555.21 969.015 1599.81 971.481 1607.98 L 956.25 1608.01 L 936.049 1608.03 C 940.501 1590.73 947.792 1567.91 953.348 1550.72 z"/>
<path transform="translate(0,0)" fill="rgb(0,0,0)" d="M 803.156 1742 L 821.228 1742.07 C 837.58 1784.58 853.665 1827.19 869.481 1869.89 L 868.629 1871.54 L 851.304 1871.67 C 846.668 1858.14 841.846 1844.67 836.838 1831.28 L 786.785 1831.34 C 781.567 1843.36 776.361 1859.18 771.856 1871.73 L 733.92 1871.71 C 731.198 1861.77 723.396 1840.75 719.503 1831.29 L 669.574 1831.37 C 664.787 1842.19 658.889 1860.06 654.644 1871.64 L 636.236 1871.83 L 686.057 1742.07 L 704.307 1742.06 L 753.437 1871.65 C 770.257 1828.53 786.83 1785.31 803.156 1742 z"/>
<path transform="translate(0,0)" fill="rgb(255,255,255)" d="M 694.587 1760.68 C 696.944 1763.02 712.39 1809.73 714.962 1816.74 L 697.975 1816.4 C 690.405 1816.64 682.625 1816.36 675.038 1816.2 C 681.877 1797.8 688.394 1779.29 694.587 1760.68 z"/>
<path transform="translate(0,0)" fill="rgb(255,255,255)" d="M 811.677 1760.75 C 814.687 1764.39 829.28 1809.31 831.787 1816.61 L 813.182 1816.42 C 806.239 1816.53 799.101 1816.38 792.143 1816.32 C 798.777 1797.84 805.288 1779.31 811.677 1760.75 z"/>
<path transform="translate(0,0)" fill="rgb(0,0,0)" d="M 812.242 1517.41 C 830.1 1515.69 850.496 1520.45 866.764 1527.81 C 864.449 1535.87 859.47 1548.07 856.384 1556.2 C 842.183 1550.75 830.77 1546.4 815.347 1547.78 C 784.036 1550.5 773.301 1580.6 777.439 1608.26 C 782.737 1643.67 801.648 1648.9 833.192 1644.1 L 833.129 1614.65 C 823.843 1614.54 814.556 1614.54 805.27 1614.63 L 805.338 1585.91 L 837.585 1585.89 L 866.733 1585.98 L 866.92 1666.17 C 811.783 1684.11 749.516 1682.11 742.226 1611.1 C 736.997 1560.16 758.379 1522.11 812.242 1517.41 z"/>
<path transform="translate(0,0)" fill="rgb(0,0,0)" d="M 566.936 1519.79 C 578.198 1519.67 589.595 1519.79 600.869 1519.81 L 600.87 1552.25 L 600.956 1592.48 C 600.984 1614.98 603.276 1641.3 586.084 1658.41 C 557.07 1687.28 488.436 1680.92 478.743 1635.67 C 475.125 1618.78 476.112 1600.16 476.164 1582.96 L 476.407 1519.84 L 510.941 1519.7 L 510.899 1585.44 C 510.892 1597.77 508.725 1629.75 518.344 1638.57 C 532.391 1651.44 562.81 1647.82 565.641 1624.74 C 567.401 1610.39 566.888 1597.55 566.861 1582.86 L 566.936 1519.79 z"/>
<path transform="translate(0,0)" fill="rgb(0,0,0)" d="M 424.191 1519.74 L 459.815 1519.78 C 456.652 1529.64 453.368 1539.47 449.965 1549.25 L 407.761 1673.58 C 395.513 1673.47 383.095 1673.61 370.831 1673.63 C 354.18 1622.34 335.865 1571.23 318.971 1519.94 C 330.339 1519.45 343.753 1519.73 355.276 1519.69 C 365.765 1558 380.405 1597.12 389.133 1636.03 C 397.444 1600.71 413.129 1555.28 424.191 1519.74 z"/>
<path transform="translate(0,0)" fill="rgb(0,0,0)" d="M 1098.7 1517.36 C 1118.07 1515.55 1134.91 1520.51 1152.06 1528.89 C 1148.54 1538.63 1144.9 1548.34 1141.15 1558 C 1118.7 1547.54 1090.78 1536.94 1076.46 1566.35 C 1069.38 1582.3 1068.45 1607.12 1074.27 1623.47 C 1086.22 1657.06 1123 1645.31 1146.18 1636.44 C 1146.44 1646.72 1146.52 1657.01 1146.43 1667.29 C 1094.62 1687.67 1041.97 1673.52 1035.73 1612.1 C 1030.97 1565.2 1047.51 1523.5 1098.7 1517.36 z"/>
<path transform="translate(0,0)" fill="rgb(0,0,0)" d="M 633.095 1519.82 C 644.325 1519.56 656.395 1519.76 667.695 1519.74 C 666.828 1560.35 667.422 1603.26 667.386 1644.03 L 727.961 1644.08 L 727.975 1673.29 C 696.907 1674.16 664.282 1673.34 632.979 1673.64 L 633.095 1519.82 z"/>
<path transform="translate(0,0)" fill="rgb(0,0,0)" d="M 266.085 1519.84 L 300.947 1519.76 L 300.945 1673.61 C 289.298 1673.58 277.651 1673.62 266.005 1673.74 L 266.085 1519.84 z"/>
<path transform="translate(0,0)" fill="rgb(0,0,0)" d="M 1173.79 1519.78 C 1185.13 1519.65 1196.69 1519.78 1208.06 1519.79 C 1207.81 1570.82 1208.7 1622.5 1207.81 1673.45 L 1173.5 1673.63 L 1173.79 1519.78 z"/>
<path transform="translate(0,0)" fill="rgb(0,0,0)" d="M 886.17 1742.14 C 910.328 1741.84 935.016 1742.09 959.216 1742.09 L 959.324 1757 L 903.152 1757.02 L 903.137 1800.44 C 919.747 1801.11 938.412 1800.75 955.173 1800.78 L 954.936 1815.84 L 903.173 1815.97 L 903.098 1871.76 L 886.086 1871.75 L 886.17 1742.14 z"/>
<path transform="translate(0,0)" fill="rgb(0,0,0)" d="M 980.414 1742.05 L 997.132 1742.09 C 997.835 1781.79 998.203 1832.2 997.056 1871.68 L 980.257 1871.77 L 980.414 1742.05 z"/>
<path transform="translate(0,0)" fill="rgb(0,0,0)" d="M 1313.2 1472.83 C 1326.01 1472.79 1341.42 1472.37 1353.96 1473.37 C 1346.07 1481.57 1327.84 1496.5 1318.62 1504.73 L 1312.4 1509.84 C 1303.86 1510.04 1294.95 1509.98 1286.37 1510.03 C 1291 1501.21 1306.52 1481.65 1313.2 1472.83 z"/>
</svg>